# xmcd CD database file
#
# Track frame offsets:
#	150
#	21590
#	45053
#	58954
#
# Disc length: 903 seconds
#
# Revision: 0
# Processed by: cddbd v1.5PL3 Copyright (c) Steve Scherf et al.
# Submitted via: CDex 1.51
#
DISCID=2e038504
DTITLE=S.E.N.S. - Maria (single)
DYEAR=2001
DGENRE=New Age
TTITLE0=Maria
TTITLE1=Requiem
TTITLE2=L' Oiseau Bleu - Guitar
TTITLE3=Heaven's Song - Whisper Vox
EXTD=YEAR: 2001
EXTT0=
EXTT1=
EXTT2=
EXTT3=
PLAYORDER=
